<svg xmlns="http://www.w3.org/2000/svg" xmlns:xlink="http://www.w3.org/1999/xlink" width="209.151" height="29.434" viewBox="0 0 209.151 29.434">
  <defs>
    <clipPath id="clip-path">
      <rect id="Rectangle_42" data-name="Rectangle 42" width="35.597" height="23.547" fill="#fff"/>
    </clipPath>
  </defs>
  <g id="Group_219" data-name="Group 219" transform="translate(-463 -6705.566)">
    <g id="Group_218" data-name="Group 218" transform="translate(0.299)">
      <path id="Path_30" data-name="Path 30" d="M40.472,1.84a1.84,1.84,0,0,1,1.84,1.84V25.755a1.84,1.84,0,0,1-1.84,1.84H3.679a1.84,1.84,0,0,1-1.84-1.84V3.679a1.84,1.84,0,0,1,1.84-1.84Zm0-1.84H3.679A3.678,3.678,0,0,0,0,3.679V25.755a3.678,3.678,0,0,0,3.679,3.679H40.472a3.678,3.678,0,0,0,3.679-3.679V3.679A3.678,3.678,0,0,0,40.472,0" transform="translate(462.701 6705.566)" fill="#fff"/>
      <path id="Path_31" data-name="Path 31" d="M18.084,5.774l-1.84,8.517H14.056L15.9,5.774Zm9.2,5.519,1.159-3.2.809,3.183Zm2.465,3.017h2.024l-1.84-8.517h-1.84a1.012,1.012,0,0,0-.938.625L23.842,14.31H26.16l.46-1.269h2.815Zm-5.7-2.8c0-2.244-3.091-2.373-3.072-3.367,0-.313.294-.644.92-.717a4.256,4.256,0,0,1,2.171.368l.386-1.84a5.946,5.946,0,0,0-2.042-.368c-2.189,0-3.679,1.159-3.679,2.815,0,1.214,1.1,1.84,1.932,2.318S21.8,11.4,21.8,11.771s-.681.828-1.306.828a4.563,4.563,0,0,1-2.281-.5l-.4,1.84a7.354,7.354,0,0,0,2.447.442c2.318,0,3.826-1.141,3.826-2.907m-9.143-5.7L11.37,14.291H9.015L7.175,7.5a.974.974,0,0,0-.515-.754A9.6,9.6,0,0,0,4.6,6.032V5.774H8.279a1.03,1.03,0,0,1,1.012.883l.938,4.912,2.465-5.795Z" transform="translate(466.563 6710.259)" fill="#fff"/>
    </g>
    <g id="Group_217" data-name="Group 217" transform="translate(-1)">
      <path id="Path_32" data-name="Path 32" d="M152.472,1.84a1.84,1.84,0,0,1,1.84,1.84V25.755a1.84,1.84,0,0,1-1.84,1.84H115.679a1.84,1.84,0,0,1-1.84-1.84V3.679a1.84,1.84,0,0,1,1.84-1.84Zm0-1.84H115.679A3.678,3.678,0,0,0,112,3.679V25.755a3.678,3.678,0,0,0,3.679,3.679h36.792a3.678,3.678,0,0,0,3.679-3.679V3.679A3.678,3.678,0,0,0,152.472,0" transform="translate(407 6705.566)" fill="#fff"/>
      <g id="Group_214" data-name="Group 214" transform="translate(523.268 6708.509)" opacity="0">
        <g id="Group_213" data-name="Group 213">
          <g id="Group_212" data-name="Group 212" clip-path="url(#clip-path)">
            <rect id="Rectangle_41" data-name="Rectangle 41" width="35.597" height="23.547" fill="#fff"/>
          </g>
        </g>
      </g>
      <path id="Path_33" data-name="Path 33" d="M129.568,21.152a9.75,9.75,0,1,1,0-17.4,11.468,11.468,0,0,0-3.882,8.7,11.648,11.648,0,0,0,3.882,8.7" transform="translate(409.87 6707.833)" fill="#fff"/>
      <path id="Path_35" data-name="Path 35" d="M139.045,12.454a9.749,9.749,0,0,1-14.147,8.7A11.625,11.625,0,0,0,126.352,5.28a10.5,10.5,0,0,0-1.472-1.527,9.749,9.749,0,0,1,14.165,8.7" transform="translate(417.814 6707.829)" fill="#fff"/>
      <path id="Path_36" data-name="Path 36" d="M125.7,19.172a9.749,9.749,0,0,1,0-15.342,9.767,9.767,0,0,1,0,15.342" transform="translate(415.372 6708.782)" fill="#fff"/>
    </g>
    <g id="Group_216" data-name="Group 216" transform="translate(-4.213)">
      <path id="Path_37" data-name="Path 37" d="M264.472,1.84a1.84,1.84,0,0,1,1.84,1.84V25.755a1.84,1.84,0,0,1-1.84,1.84H227.679a1.84,1.84,0,0,1-1.84-1.84V3.679a1.84,1.84,0,0,1,1.84-1.84Zm0-1.84H227.679A3.678,3.678,0,0,0,224,3.679V25.755a3.678,3.678,0,0,0,3.679,3.679h36.792a3.678,3.678,0,0,0,3.679-3.679V3.679A3.678,3.678,0,0,0,264.472,0" transform="translate(353.213 6705.566)" fill="#fff"/>
      <path id="Path_38" data-name="Path 38" d="M227.157,5.526l.46,1.122H226.09l.46-1.122.294-.736Z" transform="translate(354.967 6709.588)" fill="#fff"/>
      <path id="Path_39" data-name="Path 39" d="M244.7,5.76H243.4V6.808h1.343a.523.523,0,0,0,.359-.164.51.51,0,0,0,.138-.37.534.534,0,0,0-.533-.515m0,0H243.4V6.808h1.343a.523.523,0,0,0,.359-.164.51.51,0,0,0,.138-.37.534.534,0,0,0-.533-.515m0,0H243.4V6.808h1.343a.523.523,0,0,0,.359-.164.51.51,0,0,0,.138-.37.534.534,0,0,0-.533-.515m10.063.7-.331-.736-.294.736L253.7,7.581h1.508Zm0,0-.331-.736-.294.736L253.7,7.581h1.508ZM244.7,5.76H243.4V6.808h1.343a.523.523,0,0,0,.359-.164.51.51,0,0,0,.138-.37.534.534,0,0,0-.533-.515m0,0H243.4V6.808h1.343a.523.523,0,0,0,.359-.164.51.51,0,0,0,.138-.37.534.534,0,0,0-.533-.515m10.063.7-.331-.736-.294.736L253.7,7.581h1.508Zm0,0-.331-.736-.294.736L253.7,7.581h1.508ZM244.7,5.76H243.4V6.808h1.343a.523.523,0,0,0,.359-.164.51.51,0,0,0,.138-.37.534.534,0,0,0-.533-.515m0,0H243.4V6.808h1.343a.523.523,0,0,0,.359-.164.51.51,0,0,0,.138-.37.534.534,0,0,0-.533-.515m10.063.7-.331-.736-.294.736L253.7,7.581h1.508Zm0,0-.331-.736-.294.736L253.7,7.581h1.508ZM244.7,5.76H243.4V6.808h1.343a.523.523,0,0,0,.359-.164.51.51,0,0,0,.138-.37.534.534,0,0,0-.533-.515m0,0H243.4V6.808h1.343a.523.523,0,0,0,.359-.164.51.51,0,0,0,.138-.37.534.534,0,0,0-.533-.515m10.063.7-.331-.736-.294.736L253.7,7.581h1.508Zm0,0-.331-.736-.294.736L253.7,7.581h1.508ZM244.7,5.76H243.4V6.808h1.343a.523.523,0,0,0,.359-.164.51.51,0,0,0,.138-.37.534.534,0,0,0-.533-.515m0,0H243.4V6.808h1.343a.523.523,0,0,0,.359-.164.51.51,0,0,0,.138-.37.534.534,0,0,0-.533-.515m10.063.7-.331-.736-.294.736L253.7,7.581h1.508Zm0,0-.331-.736-.294.736L253.7,7.581h1.508ZM244.7,5.76H243.4V6.808h1.343a.523.523,0,0,0,.359-.164.51.51,0,0,0,.138-.37.534.534,0,0,0-.533-.515m15.453-2.079v1.4l-.9-1.4H256.6V5.52l-.809-1.84H251.27a3.308,3.308,0,0,0-2.116.681V3.681H234.29l-.534,1.508-.5-1.508h-3.366V5.52l-.791-1.84h-2.759L225,6.826v3.679h1.84l.386-1.03h.957l.5,1.1H244.15V9.328l.975,1.251h4.066V9.954a3.418,3.418,0,0,0,2.042.625h2.41l.386-1.03h.957l.386,1.03h4.121V9.236l.865,1.343h2.87v-6.9ZM229.3,9.512,228.9,8.5h-2.244l-.4,1.012H225l2.06-4.765h1.49l2.06,4.765Zm7.358,0h-1.1V5.649l-.221.736-1.1,3.127h-.993l-1.085-3.127-.239-.736V9.512h-1.1V4.748h1.84l.92,2.741.184.46.166-.533.92-2.741h1.84Zm4.728-3.679H238.76V6.7h2.612v.993H238.76V8.5h2.686V9.512H237.62V4.748h3.826Zm3.863,3.679L243.838,7.8H243.4V9.512h-1.159V4.748h2.612a1.49,1.49,0,0,1,1.656,1.49A1.472,1.472,0,0,1,245.2,7.746l1.582,1.84Zm2.851,0h-1.03V4.748h1.141Zm2.962,0h0a2.117,2.117,0,0,1-2.152-2.355,2.153,2.153,0,0,1,2.208-2.41h1.343v1.03h-1.233A1.179,1.179,0,0,0,250,7.084a1.177,1.177,0,0,0,1.233,1.343h.35Zm4.875,0-.4-1.012h-2.189l-.4,1.012h-1.233l2.042-4.765h1.508L257.3,9.512Zm6.071,0h-1.361L258.9,6.826l-.313-.533V9.512h-1.122V4.748h1.4L260.56,7.3l.313.552V4.748h1.141Zm-7.579-3.79h0l-.294.736L253.7,7.581h1.508l-.46-1.122Zm-9.768,0H243.4V6.771h1.343a.514.514,0,0,0,.5-.5.534.534,0,0,0-.533-.515Zm0,0H243.4V6.771h1.343a.514.514,0,0,0,.5-.5.534.534,0,0,0-.533-.515Zm10.063.7-.294-.7-.294.736L253.7,7.581h1.508Zm0,0-.294-.7-.294.736L253.7,7.581h1.508Zm-10.063-.7H243.4V6.771h1.343a.514.514,0,0,0,.5-.5.534.534,0,0,0-.533-.515Zm0,0H243.4V6.771h1.343a.514.514,0,0,0,.5-.5.534.534,0,0,0-.533-.515Zm10.063.7-.294-.7-.294.736L253.7,7.581h1.508Zm0,0-.294-.7-.294.736L253.7,7.581h1.508Zm-10.063-.7H243.4V6.771h1.343a.514.514,0,0,0,.5-.5.534.534,0,0,0-.533-.515Zm0,0H243.4V6.771h1.343a.514.514,0,0,0,.5-.5.534.534,0,0,0-.533-.515Zm10.063.7-.294-.7-.294.736L253.7,7.581h1.508Zm0,0-.294-.7-.294.736L253.7,7.581h1.508Zm-10.063-.7H243.4V6.771h1.343a.514.514,0,0,0,.5-.5.534.534,0,0,0-.533-.515Zm0,0H243.4V6.771h1.343a.514.514,0,0,0,.5-.5.534.534,0,0,0-.533-.515Zm10.063.7-.294-.7-.294.736L253.7,7.581h1.508Zm0,0-.294-.7-.294.736L253.7,7.581h1.508Zm-10.063-.7H243.4V6.771h1.343a.514.514,0,0,0,.5-.5.534.534,0,0,0-.533-.515Zm0,0H243.4V6.771h1.343a.514.514,0,0,0,.5-.5.534.534,0,0,0-.533-.515Zm0,0H243.4V6.771h1.343a.514.514,0,0,0,.5-.5.534.534,0,0,0-.533-.515Zm0,0H243.4V6.771h1.343a.514.514,0,0,0,.5-.5.534.534,0,0,0-.533-.515Zm0,0H243.4V6.771h1.343a.514.514,0,0,0,.5-.5.534.534,0,0,0-.533-.515Z" transform="translate(354.052 6708.655)" fill="#fff"/>
      <path id="Path_40" data-name="Path 40" d="M242.076,10.649h-1.361v1.177h1.361a.589.589,0,1,0,0-1.177m0,0h-1.361v1.177h1.361a.589.589,0,1,0,0-1.177m0,0h-1.361v1.177h1.361a.589.589,0,1,0,0-1.177m4.857,0H245.59V11.7h1.343c.386,0,.589-.2.589-.515a.535.535,0,0,0-.175-.4.527.527,0,0,0-.414-.136m0,0H245.59V11.7h1.343c.386,0,.589-.2.589-.515a.535.535,0,0,0-.175-.4.527.527,0,0,0-.414-.136m-4.857,0h-1.361v1.177h1.361a.589.589,0,1,0,0-1.177m0,0h-1.361v1.177h1.361a.589.589,0,1,0,0-1.177m4.857,0H245.59V11.7h1.343c.386,0,.589-.2.589-.515a.535.535,0,0,0-.175-.4.527.527,0,0,0-.414-.136m14.717,0h-2.1a.415.415,0,0,0-.311.118.432.432,0,0,0,.311.747h1.1a1.381,1.381,0,0,1,1.4.809V9.674Zm-14.717,0H245.59V11.7h1.343c.386,0,.589-.2.589-.515a.535.535,0,0,0-.175-.4.527.527,0,0,0-.414-.136m-4.857,0h-1.361v1.177h1.361a.589.589,0,1,0,0-1.177m17.513-1.012h2.465V8.57H237.477l-.7,1.03-.717-1.03H229.07v6.9h6.954l.717-1.03.7,1.03h4.268V13.923h.478a4.624,4.624,0,0,0,1.269-.184v1.729h2.888V14.236l.975,1.233h13.19a2.829,2.829,0,0,0,1.545-.423v-1.6a1.508,1.508,0,0,1-1.545.957H258.1V13.39h2.428a.425.425,0,0,0,.478-.423.444.444,0,0,0-.142-.326.439.439,0,0,0-.337-.116h-1.085a1.325,1.325,0,0,1-1.49-1.4,1.47,1.47,0,0,1,1.637-1.49m-25.607,1.012h-2.667v.865h2.612v1.012h-2.612v.865h2.667V14.4h-3.826V9.637h3.826Zm3.918,3.679L236.76,12.8l-1.2,1.527h-1.38l1.84-2.373-1.84-2.392h1.435l1.177,1.508,1.159-1.508h1.4l-1.84,2.373,1.84,2.392Zm4.25-1.564h-1.435v1.564h-1.159V9.637h2.631a1.526,1.526,0,0,1,1.656,1.6,1.563,1.563,0,0,1-1.692,1.6Zm5.39,1.564-1.417-1.692h-.533v1.692h-1.141V9.637h2.594a1.527,1.527,0,0,1,.294,3.017l1.582,1.84Zm5.519-3.679H250.41v.865h2.612v1.012H250.41v.865H253.1V14.4h-3.918V9.637h3.845Zm3.017,3.679H253.7V13.316h2.428a.422.422,0,0,0,.4-.276.444.444,0,0,0-.142-.326.439.439,0,0,0-.337-.116h-1.085a1.325,1.325,0,0,1-1.49-1.4,1.47,1.47,0,0,1,1.637-1.49H257.6l-.46,1.012h-1.968a.422.422,0,0,0-.324.11.433.433,0,0,0,.324.754h1.085a1.325,1.325,0,0,1,1.49,1.38,1.472,1.472,0,0,1-1.637,1.435Zm-9.2-3.679h-1.343V11.7h1.343c.386,0,.589-.2.589-.515a.534.534,0,0,0-.534-.533Zm-4.857,0h-1.306v1.177h1.361a.589.589,0,1,0,0-1.177Zm0,0h-1.306v1.177h1.361a.589.589,0,1,0,0-1.177Zm4.857,0h-1.343V11.7h1.343c.386,0,.589-.2.589-.515a.534.534,0,0,0-.534-.533Zm0,0h-1.343V11.7h1.343c.386,0,.589-.2.589-.515a.534.534,0,0,0-.534-.533Zm-4.857,0h-1.306v1.177h1.361a.589.589,0,1,0,0-1.177Zm0,0h-1.306v1.177h1.361a.589.589,0,1,0,0-1.177Zm4.857,0h-1.343V11.7h1.343c.386,0,.589-.2.589-.515a.534.534,0,0,0-.534-.533Zm0,0h-1.343V11.7h1.343c.386,0,.589-.2.589-.515a.534.534,0,0,0-.534-.533Zm-4.857,0h-1.306v1.177h1.361a.589.589,0,1,0,0-1.177Z" transform="translate(357.469 6712.761)" fill="#fff"/>
    </g>
    <g id="Group_215" data-name="Group 215" transform="translate(-3.849)">
      <path id="Path_41" data-name="Path 41" d="M488.472,1.84a1.84,1.84,0,0,1,1.84,1.84V25.755a1.84,1.84,0,0,1-1.84,1.84H451.679a1.84,1.84,0,0,1-1.84-1.84V3.679a1.84,1.84,0,0,1,1.84-1.84Zm0-1.84H451.679A3.678,3.678,0,0,0,448,3.679V25.755a3.678,3.678,0,0,0,3.679,3.679h36.792a3.678,3.678,0,0,0,3.679-3.679V3.679A3.678,3.678,0,0,0,488.472,0" transform="translate(183.849 6705.566)" fill="#fff"/>
      <path id="Path_42" data-name="Path 42" d="M485.273,8.86v9.456a1.84,1.84,0,0,1-1.84,1.84H454c20.236-3.477,31.273-11.3,31.273-11.3" transform="translate(188.887 6713.005)" fill="#fff"/>
      <path id="Path_43" data-name="Path 43" d="M451.674,5.323H450V11.21h1.674a3.138,3.138,0,0,0,2.116-.662,2.962,2.962,0,0,0-2.116-5.225m1.361,4.415a2.114,2.114,0,0,1-1.582.515h-.294V6.317h.294a2.152,2.152,0,0,1,1.582.478,1.949,1.949,0,0,1,.625,1.472,1.971,1.971,0,0,1-.625,1.472" transform="translate(185.528 6710.029)" fill="#fff"/>
      <rect id="Rectangle_43" data-name="Rectangle 43" width="1.84" height="5.905" transform="translate(640.918 6715.353)" fill="#fff"/>
      <path id="Path_44" data-name="Path 44" d="M456.163,7.634c-.681-.258-.883-.423-.883-.754a.765.765,0,0,1,.846-.644,1.162,1.162,0,0,1,.938.478l.607-.791a2.555,2.555,0,0,0-1.84-.662,1.84,1.84,0,0,0-1.84,1.692c0,.809.368,1.233,1.453,1.619.46.166.681.276.809.331a.753.753,0,0,1,.331.625.828.828,0,0,1-.791.773,1.381,1.381,0,0,1-1.269-.791l-.736.791a2.3,2.3,0,0,0,2.042,1.1,1.839,1.839,0,0,0,2.024-1.932c0-1.012-.368-1.361-1.693-1.84" transform="translate(188.711 6709.981)" fill="#fff"/>
      <path id="Path_45" data-name="Path 45" d="M456.21,8.331a3.054,3.054,0,0,0,3.109,3.091,3.22,3.22,0,0,0,1.435-.35V9.71a1.92,1.92,0,0,1-3.367-1.417,1.95,1.95,0,0,1,1.932-1.987,1.845,1.845,0,0,1,1.435.662V5.608a2.909,2.909,0,0,0-1.417-.368,3.109,3.109,0,0,0-3.127,3.091" transform="translate(190.742 6709.965)" fill="#fff"/>
      <path id="Path_46" data-name="Path 46" d="M464.943,9.275,463.361,5.32H462.11l2.5,6.052h.625l2.539-6.052h-1.232Z" transform="translate(195.696 6710.033)" fill="#fff"/>
      <path id="Path_49" data-name="Path 49" d="M465.172,8.347a3.146,3.146,0,1,1-3.146-3.127,3.145,3.145,0,0,1,3.146,3.127" transform="translate(192.984 6709.949)" fill="#fff"/>
    </g>
  </g>
</svg>
